<svg width="25" height="25" viewBox="0 0 25 25" fill="none" xmlns="http://www.w3.org/2000/svg">
<path d="M12.5 0C5.60021 0 0 5.60021 0 12.5C0 19.4083 5.60021 25 12.5 25C19.4083 25 25 19.3998 25 12.5C25 5.60021 19.4083 0 12.5 0ZM19.7247 7.25034C17.3051 9.14843 14.9025 11.0294 12.5 12.9189C10.0889 11.0294 7.68639 9.14843 5.26676 7.25034C10.0975 7.25034 14.894 7.25034 19.7247 7.25034ZM19.8957 17.7497C19.8273 17.7411 19.7503 17.7326 19.6819 17.7326C14.894 17.7326 10.106 17.7326 5.31806 17.7326C5.24966 17.7326 5.18126 17.7326 5.10431 17.7326C5.10431 14.8598 5.10431 11.9956 5.10431 9.11423C5.14706 9.14843 5.18981 9.17408 5.22401 9.19973C7.60089 11.0636 9.98632 12.9275 12.3632 14.7999C12.4658 14.8854 12.5257 14.8769 12.6282 14.7999C15.0222 12.9189 17.4248 11.038 19.8187 9.15698C19.8444 9.13988 19.8615 9.12278 19.8871 9.10568C19.8957 11.9956 19.8957 14.8683 19.8957 17.7497Z" fill="white"/>
</svg>
