<svg width="65" height="65" viewBox="0 0 65 65" fill="none" xmlns="http://www.w3.org/2000/svg">
<circle cx="32.5" cy="32.5" r="32.5" fill="#4CAF50"/>
<circle cx="32.5" cy="32.5" r="32.5" stroke="#ACBDD3"/>
<g clip-path="url(#clip0_578_280)">
<path d="M48.4367 16.3665C48.3737 16.3401 48.3077 16.3325 48.2422 16.3325V16.3279H41.6406H35.5469H29.4531C29.318 16.3279 29.1891 16.3813 29.0941 16.4767L23.0009 22.57C22.9089 22.6619 22.8516 22.7888 22.8516 22.9295V35.6248C22.8516 35.9056 23.0786 36.1326 23.3594 36.1326H42.1484C42.2891 36.1326 42.4161 36.0752 42.508 35.9833L48.6012 29.8901C48.6967 29.7951 48.75 29.6661 48.75 29.5311V16.8358C48.75 16.6306 48.6266 16.4447 48.4367 16.3665ZM35.7571 17.3436H40.4148L35.1879 22.5705C35.0924 22.6654 35.0391 22.7944 35.0391 22.9295V27.5668L34.3053 27.0773C34.1346 26.9631 33.9127 26.9631 33.7421 27.0773L32.5 27.9051L31.2584 27.0773C31.1731 27.0204 31.0746 26.992 30.9766 26.992C30.8786 26.992 30.78 27.0204 30.6947 27.0773L29.9609 27.5668V23.1397L35.7571 17.3436ZM29.6634 17.3436H34.321L29.2429 22.4217H24.5852L29.6634 17.3436ZM41.6406 35.117H23.8672V23.4373H28.9453V28.5154C28.9453 28.7028 29.0484 28.875 29.2134 28.9633C29.378 29.0517 29.5791 29.0415 29.7345 28.9379L30.9766 28.1102L32.2182 28.9379C32.3888 29.0522 32.6107 29.0522 32.7813 28.9379L34.0234 28.1102L35.265 28.9379C35.3498 28.9943 35.4484 29.0233 35.5469 29.0233C35.6291 29.0233 35.7114 29.0034 35.7866 28.9633C35.9516 28.875 36.0547 28.7028 36.0547 28.5154V23.4373H41.6406V35.117ZM41.9382 22.4217H36.7727L41.8509 17.3436H47.0163L41.9382 22.4217ZM47.7344 29.3208L42.6562 34.399V23.1397L47.7344 18.0616V29.3208Z" fill="white"/>
<path d="M46.1271 39.279C45.7519 38.9632 45.2573 38.8301 44.7748 38.9139L34.7039 40.6654L31.8434 37.8049C31.7484 37.7094 31.6195 37.6561 31.4844 37.6561H26.4062C26.4062 37.3752 26.1793 37.1483 25.8984 37.1483H23.8672H16.25V38.1639H23.3594V45.2733H16.25V46.2889H23.8672H25.8984C26.1793 46.2889 26.4062 46.0619 26.4062 45.7811H27.8098L33.2389 48.4958C33.4735 48.6131 33.7279 48.672 33.9813 48.672C34.2702 48.672 34.5587 48.5964 34.8171 48.4456L45.8956 41.9826C46.4034 41.6866 46.7188 41.1376 46.7188 40.5496C46.7188 40.0585 46.5029 39.5954 46.1271 39.279ZM25.3906 45.2733H24.375V38.1639H25.3906V45.2733ZM45.3837 41.1051L34.3058 47.5681C34.1179 47.6777 33.8889 47.6849 33.6934 47.5874L28.1572 44.8193C28.0866 44.7837 28.0084 44.7654 27.9297 44.7654H26.4062V38.6717H31.2741L35.2752 42.6727C35.4479 42.8454 35.5469 43.0846 35.5469 43.3293C35.5469 43.8412 35.1305 44.2576 34.6186 44.2576C34.3743 44.2576 34.1346 44.1586 33.962 43.986L31.3356 41.3595L30.6175 42.0776L33.2439 44.704C33.6111 45.0711 34.0991 45.2733 34.6186 45.2733C35.6901 45.2733 36.5625 44.4008 36.5625 43.3293C36.5625 42.8104 36.3604 42.3218 35.9932 41.9547L35.5819 41.5434L44.948 39.9143C45.1374 39.8803 45.3273 39.9331 45.4731 40.056C45.6193 40.1789 45.7031 40.3586 45.7031 40.5491C45.7031 40.7771 45.5807 40.9904 45.3837 41.1051Z" fill="white"/>
<path d="M23.3594 18.3592C22.5195 18.3592 21.8359 17.6757 21.8359 16.8358C21.8359 16.5549 21.6089 16.3279 21.3281 16.3279C21.0473 16.3279 20.8203 16.5549 20.8203 16.8358C20.8203 17.6757 20.1368 18.3592 19.2969 18.3592C19.0161 18.3592 18.7891 18.5862 18.7891 18.867C18.7891 19.1478 19.0161 19.3748 19.2969 19.3748C20.1368 19.3748 20.8203 20.0583 20.8203 20.8983C20.8203 21.1791 21.0473 21.4061 21.3281 21.4061C21.6089 21.4061 21.8359 21.1791 21.8359 20.8983C21.8359 20.0583 22.5195 19.3748 23.3594 19.3748C23.6402 19.3748 23.8672 19.1478 23.8672 18.867C23.8672 18.5862 23.6402 18.3592 23.3594 18.3592ZM21.3281 19.3763C21.1834 19.1834 21.0118 19.0117 20.8188 18.867C21.0118 18.7223 21.1834 18.5506 21.3281 18.3577C21.4729 18.5506 21.6445 18.7223 21.8375 18.867C21.6445 19.0117 21.4729 19.1834 21.3281 19.3763Z" fill="white"/>
</g>
<defs>
<clipPath id="clip0_578_280">
<rect width="32.5" height="32.5" fill="white" transform="translate(16.25 16.25)"/>
</clipPath>
</defs>
</svg>
