<svg width="25" height="25" viewBox="0 0 25 25" fill="none" xmlns="http://www.w3.org/2000/svg">
<g clip-path="url(#clip0_588_996)">
<path d="M25 12.5C25 5.60021 19.4083 0 12.5 0C5.59166 0 0 5.60021 0 12.5C0 18.7414 4.57421 23.9142 10.5506 24.8461V16.1166H7.37004V12.5H10.5421V9.74692C10.5421 6.61765 12.406 4.88201 15.2616 4.88201C16.6296 4.88201 18.0575 5.12996 18.0575 5.12996V8.20793H16.4843C14.9282 8.20793 14.4494 9.17408 14.4494 10.1573V12.5H17.9207L17.3649 16.1166H14.4494V24.8547C20.4343 23.9142 25 18.7414 25 12.5Z" fill="white"/>
</g>
<defs>
<clipPath id="clip0_588_996">
<rect width="25" height="24.8547" fill="white"/>
</clipPath>
</defs>
</svg>
