<svg width="65" height="65" viewBox="0 0 65 65" fill="none" xmlns="http://www.w3.org/2000/svg">
<circle cx="32.5" cy="32.5" r="32.5" fill="#4CAF50"/>
<path d="M32.4999 18.9317C30.5266 18.9317 28.5976 19.492 26.9569 20.5417C25.3161 21.5915 24.0373 23.0835 23.2821 24.8292C22.527 26.5749 22.3294 28.4957 22.7144 30.3489C23.0993 32.2021 24.0496 33.9044 25.4449 35.2404C26.8403 36.5765 28.6181 37.4864 30.5535 37.855C32.4889 38.2236 34.495 38.0344 36.3181 37.3114C38.1412 36.5883 39.6994 35.3638 40.7958 33.7927C41.8921 32.2217 42.4772 30.3746 42.4772 28.4851C42.4742 25.9523 41.422 23.524 39.5516 21.7331C37.6811 19.9421 35.1452 18.9346 32.4999 18.9317ZM32.4999 36.5688C30.8302 36.5688 29.198 36.0947 27.8096 35.2065C26.4213 34.3182 25.3392 33.0557 24.7003 31.5786C24.0613 30.1015 23.8941 28.4762 24.2198 26.9081C24.5456 25.34 25.3496 23.8996 26.5303 22.7691C27.711 21.6386 29.2153 20.8687 30.8529 20.5568C32.4906 20.2449 34.1881 20.405 35.7307 21.0168C37.2733 21.6286 38.5918 22.6647 39.5195 23.9941C40.4471 25.3234 40.9423 26.8863 40.9423 28.4851C40.9396 30.6283 40.0493 32.6829 38.4667 34.1984C36.884 35.7138 34.7382 36.5663 32.4999 36.5688Z" fill="white"/>
<path d="M44.9938 33.4406C45.6239 31.9811 47.0822 30.457 47.0822 28.4853C47.0822 26.5276 45.6124 24.9579 44.9938 23.53C44.3346 22.0066 44.2156 19.9563 42.8111 18.6122C41.4066 17.2681 39.2577 17.1505 37.6751 16.5229C36.164 15.924 34.553 14.5226 32.5 14.5226C30.447 14.5226 28.8161 15.9328 27.3249 16.5229C25.7462 17.152 23.5972 17.2644 22.1889 18.6114C20.7806 19.9585 20.6578 22.0272 20.0062 23.53C19.3761 24.9895 17.9178 26.5136 17.9178 28.4853C17.9178 30.443 19.3876 32.0127 20.0062 33.4406C20.6555 34.9397 20.7798 36.9503 22.1344 38.2996L18.6646 48.2675C18.5628 48.5581 18.5584 48.872 18.6521 49.1651C18.7457 49.4583 18.9328 49.716 19.1871 49.9023C19.4414 50.0886 19.7501 50.1941 20.0701 50.204C20.3901 50.214 20.7053 50.1278 20.9717 49.9577L24.971 47.404C25.1186 47.3097 25.2958 47.2674 25.4724 47.2841C25.649 47.3009 25.8141 47.3757 25.9396 47.4959L28.3449 49.7968C28.5595 50.0023 28.833 50.1422 29.1307 50.1989C29.4284 50.2556 29.737 50.2264 30.0174 50.1152C30.2979 50.004 30.5376 49.8157 30.7062 49.574C30.8749 49.3324 30.965 49.0483 30.965 48.7576V42.1952C31.9581 42.5322 33.0419 42.5322 34.035 42.1952V48.7576C34.035 49.0483 34.1251 49.3324 34.2938 49.574C34.4624 49.8157 34.7021 50.004 34.9826 50.1152C35.263 50.2264 35.5716 50.2556 35.8693 50.1989C36.167 50.1422 36.4405 50.0023 36.6551 49.7968L39.0604 47.4937C39.1859 47.3735 39.351 47.2987 39.5276 47.2819C39.7042 47.2652 39.8814 47.3075 40.029 47.4018L44.0283 49.9555C44.2947 50.1256 44.6099 50.2118 44.9299 50.2018C45.2499 50.1919 45.5586 50.0864 45.8129 49.9001C46.0672 49.7138 46.2543 49.4561 46.3479 49.1629C46.4416 48.8698 46.4372 48.5559 46.3354 48.2653L42.8656 38.3003C44.2171 36.9533 44.3499 34.925 44.9938 33.4406ZM29.4301 48.7576L27.0248 46.4545C26.648 46.095 26.153 45.8711 25.6236 45.8209C25.0943 45.7707 24.563 45.8972 24.1199 46.179L20.1213 48.7327L23.4391 39.1998C24.6978 39.8009 26.1629 39.9869 27.3249 40.4491C27.9811 40.7093 28.602 41.0943 29.4301 41.5286V48.7576ZM40.8794 46.179C40.4366 45.8965 39.9053 45.7697 39.3759 45.8199C38.8464 45.8701 38.3515 46.0944 37.9752 46.4545L35.5699 48.7576V41.5272C36.398 41.0929 37.0205 40.7071 37.6751 40.4476C38.8317 39.9876 40.2961 39.8039 41.5609 39.1983L44.8795 48.7327L40.8794 46.179ZM43.5755 32.8777C42.9032 34.429 42.762 36.3264 41.7259 37.3185C40.6898 38.3106 38.7066 38.4458 37.0872 39.0896C35.5776 39.6892 34.0165 40.9782 32.5 40.9782C30.965 40.9782 29.5068 39.7223 27.9128 39.0903C26.2596 38.4333 24.3148 38.3165 23.2741 37.3193C22.2334 36.322 22.1006 34.4378 21.4245 32.8784C20.7575 31.3454 19.4528 29.9617 19.4528 28.4853C19.4528 27.0089 20.7575 25.6332 21.4245 24.0922C22.0914 22.5511 22.238 20.6434 23.2741 19.6513C24.3102 18.6592 26.2934 18.524 27.9128 17.8802C29.5068 17.2482 30.9589 15.9923 32.5 15.9923C34.0411 15.9923 35.4763 17.2416 37.0872 17.8802C38.7404 18.5372 40.6852 18.6541 41.7259 19.6513C42.7666 20.6485 42.8994 22.5313 43.5755 24.0922C44.2425 25.6251 45.5472 27.0089 45.5472 28.4853C45.5472 29.9617 44.2425 31.3373 43.5755 32.8784V32.8777Z" fill="white"/>
<path d="M36.7442 24.9226C36.6587 24.8714 36.5636 24.8369 36.4642 24.8209C36.3648 24.805 36.2631 24.808 36.1649 24.8297C36.0667 24.8514 35.9739 24.8914 35.8918 24.9474C35.8098 25.0035 35.74 25.0744 35.6866 25.1563L32.4225 30.1535L30.0294 27.2874C29.9664 27.2121 29.8885 27.1493 29.8002 27.1028C29.7119 27.0562 29.6149 27.0268 29.5147 27.0161C29.4145 27.0055 29.3131 27.0138 29.2162 27.0407C29.1194 27.0676 29.029 27.1125 28.9503 27.1728C28.8716 27.2331 28.8061 27.3077 28.7575 27.3922C28.7088 27.4768 28.6781 27.5697 28.667 27.6657C28.6445 27.8594 28.7034 28.0538 28.8306 28.206L31.9006 31.8805C31.9721 31.9672 32.0632 32.0373 32.167 32.0857C32.2707 32.134 32.3846 32.1593 32.5 32.1597H32.5445C32.6669 32.153 32.7858 32.1182 32.8913 32.0584C32.9968 31.9985 33.0858 31.9153 33.1508 31.8158L36.9883 25.9367C37.0419 25.8548 37.0782 25.7636 37.095 25.6682C37.1117 25.5729 37.1087 25.4753 37.086 25.3811C37.0634 25.2869 37.0215 25.1979 36.9628 25.1192C36.9042 25.0405 36.8299 24.9737 36.7442 24.9226Z" fill="white"/>
</svg>
