<svg width="25" height="25" viewBox="0 0 25 25" fill="none" xmlns="http://www.w3.org/2000/svg">
<path d="M12.5598 10.1743C11.2859 10.1743 10.2513 11.2089 10.2513 12.4828C10.2513 13.7567 11.2859 14.7913 12.5598 14.7913C13.8338 14.7913 14.8683 13.7567 14.8683 12.4828C14.8683 11.2089 13.8338 10.1743 12.5598 10.1743Z" fill="white"/>
<path d="M15.4241 6.53223H9.57593C7.90869 6.53223 6.54926 7.89167 6.54926 9.5589V15.4071C6.54926 17.0743 7.90869 18.4337 9.57593 18.4337H15.4241C17.0913 18.4337 18.4508 17.0743 18.4508 15.4071V9.5589C18.4508 7.89167 17.0913 6.53223 15.4241 6.53223ZM12.5599 16.091C10.5677 16.091 8.95179 14.4751 8.95179 12.483C8.95179 10.4908 10.5677 8.87491 12.5599 8.87491C14.552 8.87491 16.1679 10.4908 16.1679 12.483C16.1679 14.4751 14.552 16.091 12.5599 16.091ZM16.3817 9.4905C15.9114 9.4905 15.5181 9.10576 15.5181 8.62696C15.5181 8.15671 15.9029 7.76342 16.3817 7.76342C16.8605 7.76342 17.2452 8.14816 17.2452 8.62696C17.2452 9.10576 16.8605 9.4905 16.3817 9.4905Z" fill="white"/>
<path d="M12.5 0C5.60021 0 0 5.60021 0 12.5C0 19.3998 5.60021 25 12.5 25C19.4083 25 25 19.3998 25 12.5C25 5.60021 19.4083 0 12.5 0ZM19.8273 15.407C19.8273 17.8352 17.8523 19.8102 15.4241 19.8102H9.57592C7.14774 19.8102 5.17271 17.8352 5.17271 15.407V9.55882C5.17271 7.13064 7.14774 5.15561 9.57592 5.15561H15.4241C17.8523 5.15561 19.8273 7.13064 19.8273 9.55882V15.407Z" fill="white"/>
</svg>
