<svg width="25" height="25" viewBox="0 0 25 25" fill="none" xmlns="http://www.w3.org/2000/svg">
<path d="M12.5 0C5.60021 0 0 5.60021 0 12.5C0 19.4083 5.60021 25 12.5 25C19.4083 25 25 19.3998 25 12.5C25 5.60021 19.4083 0 12.5 0ZM19.3998 17.04C18.9637 18.1088 17.8694 18.7927 16.7664 18.9979C15.7148 19.1946 14.8427 18.8611 13.8594 18.5363C12.9873 18.2456 12.1495 17.8266 11.3629 17.3478C9.79822 16.3902 8.44733 15.1077 7.36149 13.6286C7.02804 13.1754 6.72025 12.7052 6.4381 12.2264C6.0619 11.5852 5.72845 10.9097 5.55746 10.1915C5.48906 9.89227 5.44631 9.58447 5.44631 9.26813C5.43776 8.17373 5.84815 7.07079 6.72025 6.36115C7.22469 5.95075 7.95999 5.7712 8.52428 6.0961C9.13988 6.4381 9.45622 7.31019 9.73837 7.92579C9.96067 8.40458 10.2086 9.02873 10.1231 9.56737C10.0291 10.106 9.61012 10.5592 9.26813 10.9525C9.03728 11.2175 9.00308 11.4484 9.19118 11.7391C10.3112 13.6029 11.8673 14.9624 13.8936 15.7746C14.1672 15.8858 14.381 15.8516 14.5605 15.6293C14.9111 15.1932 15.2531 14.3468 15.8003 14.133C16.5014 13.8423 17.288 14.2442 17.8865 14.6033C18.4422 14.9367 19.3741 15.3471 19.528 16.0311C19.5964 16.3731 19.5366 16.7237 19.3998 17.04Z" fill="white"/>
</svg>
