<svg width="14" height="14" viewBox="0 0 14 14" fill="none" xmlns="http://www.w3.org/2000/svg">
<path d="M6.60396 0.00809636C2.90657 0.184145 -0.0111842 3.26335 3.22301e-05 6.96492C0.00344739 8.09233 0.275623 9.15645 0.755754 10.0967L0.0185813 13.675C-0.0212958 13.8686 0.153279 14.0381 0.345566 13.9925L3.8519 13.1618C4.75274 13.6105 5.76456 13.8697 6.83542 13.8861C10.6145 13.9438 13.7656 10.9431 13.8834 7.16541C14.0096 3.116 10.6675 -0.18543 6.60396 0.00809636ZM10.7878 10.7878C9.76091 11.8147 8.39561 12.3802 6.94343 12.3802C6.09312 12.3802 5.27904 12.1894 4.52372 11.8131L4.03542 11.5699L1.88567 12.0792L2.33818 9.88258L2.09761 9.41148C1.7055 8.64357 1.50669 7.81319 1.50669 6.94342C1.50669 5.49121 2.0722 4.12595 3.09906 3.09905C4.11674 2.08137 5.50431 1.50665 6.94353 1.50665C8.39571 1.50668 9.76094 2.07219 10.7878 3.09902C11.8147 4.12588 12.3802 5.49114 12.3802 6.94332C12.3802 8.38258 11.8055 9.77014 10.7878 10.7878Z" fill="white"/>
<path d="M10.3131 8.44886L8.96819 8.0627C8.79137 8.01194 8.60096 8.0621 8.47212 8.19337L8.14323 8.52844C8.00455 8.66973 7.79412 8.71513 7.61057 8.64087C6.97435 8.38341 5.63602 7.19352 5.29423 6.59834C5.19563 6.42665 5.21193 6.21201 5.333 6.05536L5.62014 5.68389C5.73264 5.53835 5.75638 5.3429 5.68199 5.17466L5.11614 3.89494C4.98061 3.58843 4.58891 3.4992 4.333 3.71562C3.95764 4.03308 3.51226 4.5155 3.45812 5.04994C3.36267 5.99221 3.76679 7.18003 5.295 8.60628C7.0605 10.254 8.4743 10.4717 9.39482 10.2487C9.91693 10.1223 10.3342 9.61531 10.5975 9.20022C10.777 8.91722 10.6353 8.54137 10.3131 8.44886Z" fill="white"/>
</svg>
