<svg width="65" height="65" viewBox="0 0 65 65" fill="none" xmlns="http://www.w3.org/2000/svg">
<circle cx="32.5" cy="32.5" r="32.5" fill="#4CAF50"/>
<g clip-path="url(#clip0_578_279)">
<path d="M48.2963 26.5619C47.4643 24.5006 46.2416 22.6548 44.6626 21.0756C43.0834 19.4965 41.2376 18.2739 39.1763 17.4419C37.0365 16.5781 34.7691 16.1802 32.4375 16.2598C28.3856 16.3978 24.5272 18.0466 21.573 20.9026C18.6175 23.7599 16.8421 27.5604 16.5739 31.6038C16.3531 34.9306 17.1161 38.1851 18.7813 41.0319L16.3548 47.3784C16.1329 47.9586 16.268 48.5918 16.7071 49.0311C17.0065 49.3305 17.3961 49.4885 17.7976 49.4885C17.985 49.4885 18.1751 49.454 18.3597 49.3834L24.7063 46.9568C27.553 48.6221 30.8078 49.3851 34.1344 49.1643C38.1778 48.8961 41.9782 47.1207 44.8356 44.1652C47.6915 41.2111 49.3404 37.3527 49.4784 33.3008C49.5578 30.969 49.1601 28.7017 48.2963 26.5619ZM48.5052 33.2676C48.3755 37.0781 46.8236 40.7079 44.1355 43.4883C41.4464 46.2697 37.8717 47.9405 34.0699 48.1927C30.8628 48.4054 27.7281 47.6476 25.0045 46.0012C24.876 45.9236 24.719 45.9094 24.5787 45.9631L18.012 48.4739C17.7923 48.5578 17.562 48.5087 17.3957 48.3425C17.2295 48.1762 17.1804 47.9458 17.2643 47.7262L19.7751 41.1595C19.8287 41.0192 19.8147 40.8621 19.737 40.7337C18.0905 38.0101 17.3327 34.8753 17.5455 31.6682C17.7977 27.8664 19.4684 24.2917 22.2499 21.6026C25.0303 18.9145 28.6601 17.3627 32.4706 17.2329C34.6655 17.1585 36.799 17.5322 38.8118 18.3448C40.7511 19.1276 42.4879 20.278 43.974 21.7641C45.4601 23.2502 46.6106 24.987 47.3934 26.9263C48.2059 28.9392 48.5799 31.0727 48.5052 33.2676Z" fill="white"/>
<path d="M33.0128 18.915C29.5954 18.915 26.3128 20.1787 23.7699 22.4733C23.5703 22.6535 23.5544 22.9614 23.7346 23.161C23.9147 23.3606 24.2227 23.3765 24.4223 23.1963C26.786 21.0634 29.8368 19.8888 33.0128 19.8888C40.0913 19.8888 45.85 25.6475 45.85 32.726C45.85 35.9019 44.6754 38.9528 42.5425 41.3165C42.3623 41.5161 42.3781 41.824 42.5778 42.0042C42.6709 42.0882 42.7875 42.1296 42.9038 42.1296C43.0368 42.1296 43.1693 42.0754 43.2655 41.9688C45.5601 39.4259 46.8238 36.1434 46.8238 32.726C46.8237 25.1106 40.6281 18.915 33.0128 18.915Z" fill="white"/>
<path d="M41.0473 42.7271C38.7426 44.5825 35.9643 45.5632 33.0127 45.5632C30.6694 45.5632 28.377 44.9262 26.3833 43.7211C25.8917 43.4237 25.3279 43.2664 24.7528 43.2664C24.3664 43.2664 23.9877 43.3363 23.6272 43.4742L21.421 44.3178L22.2646 42.1115C22.6139 41.1975 22.524 40.193 22.0178 39.3557C20.8126 37.3618 20.1755 35.0693 20.1755 32.7261C20.1755 29.7746 21.1563 26.9962 23.0116 24.6914C23.1802 24.4819 23.1471 24.1755 22.9377 24.0069C22.7281 23.8382 22.4217 23.8714 22.2531 24.0808C20.2854 26.5251 19.2018 29.5953 19.2018 32.7261C19.2018 35.2469 19.8874 37.7136 21.1845 39.8594C21.5343 40.438 21.5965 41.1322 21.3551 41.7637L20.1224 44.9878C20.0537 45.1672 20.097 45.3702 20.2329 45.506C20.3687 45.6418 20.5716 45.6851 20.751 45.6165L23.9751 44.3837C24.2242 44.2885 24.4859 44.2402 24.7529 44.2402C25.1502 44.2402 25.5398 44.3488 25.8795 44.5543C28.0253 45.8514 30.492 46.537 33.0128 46.537C36.1436 46.537 39.2139 45.4534 41.6581 43.4857C41.8676 43.3171 41.9006 43.0106 41.732 42.8011C41.5635 42.5917 41.2568 42.5585 41.0473 42.7271Z" fill="white"/>
<path d="M29.5719 30.0718C30.1464 29.4973 30.3336 28.6348 30.0489 27.8744C29.7628 27.1104 29.5458 26.3133 29.4039 25.5055C29.3057 24.9458 28.9049 24.4908 28.3582 24.3181C27.7988 24.1415 27.1947 24.2883 26.7818 24.7012L25.5703 25.9127C24.922 26.561 24.5868 27.4391 24.6505 28.3217C24.8896 31.6276 26.312 34.739 28.6558 37.0828C30.9997 39.4266 34.111 40.849 37.4169 41.0881C37.4881 41.0932 37.5592 41.0958 37.6302 41.0958C38.4397 41.0958 39.2299 40.7644 39.826 40.1683L41.0374 38.9568C41.4503 38.5439 41.5972 37.9398 41.4205 37.3804C41.2479 36.8336 40.7929 36.4329 40.2332 36.3347C39.4253 36.1928 38.6282 35.9758 37.8642 35.6897C37.1038 35.405 36.2413 35.5922 35.6669 36.1667L35.4781 36.3556C35.1559 36.6778 34.6739 36.7768 34.2788 36.602C33.1385 36.0973 32.1122 35.3935 31.2287 34.5099C30.3453 33.6264 29.6414 32.6002 29.1367 31.4599C28.9619 31.0648 29.0609 30.5829 29.3831 30.2606L29.5719 30.0718ZM28.8834 29.3832L28.6945 29.572C28.0899 30.1766 27.9097 31.0937 28.2462 31.854C28.7996 33.1045 29.5714 34.2298 30.5402 35.1985C31.5089 36.1672 32.6341 36.939 33.8847 37.4925C34.645 37.829 35.5621 37.6488 36.1667 37.0442L36.3555 36.8553C36.6608 36.5501 37.119 36.4505 37.5227 36.6017C38.3427 36.9087 39.198 37.1416 40.0648 37.2938C40.3583 37.3453 40.4613 37.5766 40.4919 37.6737C40.5598 37.8886 40.5063 38.1109 40.3489 38.2683L39.1375 39.4798C38.6891 39.9281 38.0876 40.1606 37.4872 40.1169C34.4146 39.8947 31.5228 38.5727 29.3444 36.3942C27.166 34.2158 25.844 31.324 25.6218 28.2516C25.5784 27.6511 25.8106 27.0495 26.2589 26.6013L27.4704 25.3898C27.5829 25.2774 27.7285 25.218 27.8809 25.218C27.9418 25.218 28.0037 25.2275 28.0651 25.2468C28.1621 25.2774 28.3934 25.3804 28.4449 25.674C28.5971 26.5408 28.83 27.396 29.1371 28.2161C29.2882 28.6198 29.1886 29.0779 28.8834 29.3832Z" fill="white"/>
</g>
<defs>
<clipPath id="clip0_578_279">
<rect width="33.2386" height="33.2386" fill="white" transform="translate(16.25 16.25)"/>
</clipPath>
</defs>
</svg>
